<svg width="130" height="34" viewBox="0 0 130 34" fill="none" xmlns="http://www.w3.org/2000/svg">
<rect width="130" height="34" rx="17" fill="#D1FAE5"/>
<path d="M28.8 12.8H18.8V12.4L27.6 11.696V12.4H28.8V11.2C28.8 10.32 28.0872 9.70239 27.2168 9.82639L19.184 10.9736C18.3128 11.0984 17.6 11.92 17.6 12.8V20.8C17.6 21.2243 17.7685 21.6313 18.0686 21.9314C18.3687 22.2314 18.7756 22.4 19.2 22.4H28.8C29.2243 22.4 29.6313 22.2314 29.9313 21.9314C30.2314 21.6313 30.4 21.2243 30.4 20.8V14.4C30.4 13.9756 30.2314 13.5687 29.9313 13.2686C29.6313 12.9686 29.2243 12.8 28.8 12.8ZM27.6 18.4048C27.4423 18.4047 27.2863 18.3736 27.1406 18.3133C26.995 18.2529 26.8627 18.1644 26.7513 18.0529C26.6399 17.9414 26.5515 17.8091 26.4912 17.6634C26.4309 17.5177 26.3999 17.3616 26.4 17.204C26.4 17.0464 26.4311 16.8903 26.4915 16.7446C26.5519 16.599 26.6403 16.4667 26.7518 16.3553C26.8634 16.2439 26.9957 16.1555 27.1414 16.0952C27.287 16.0349 27.4431 16.0039 27.6008 16.004C27.9191 16.0041 28.2244 16.1307 28.4495 16.3559C28.6745 16.5811 28.8009 16.8864 28.8008 17.2048C28.8007 17.5232 28.6741 17.8284 28.4489 18.0535C28.2237 18.2785 27.9183 18.4049 27.6 18.4048Z" fill="#047857"/>
<path d="M43.372 22V12.2H47.46C48.4027 12.2 49.1167 12.41 49.602 12.83C50.0967 13.25 50.344 13.8613 50.344 14.664C50.344 15.1213 50.2367 15.5227 50.022 15.868C49.8073 16.204 49.504 16.4607 49.112 16.638C49.644 16.834 50.0687 17.1467 50.386 17.576C50.7033 17.996 50.862 18.5093 50.862 19.116C50.862 20.0493 50.5727 20.7633 49.994 21.258C49.4247 21.7527 48.6267 22 47.6 22H43.372ZM44.884 16.26H47.376C47.796 16.26 48.1413 16.1387 48.412 15.896C48.692 15.6533 48.832 15.3407 48.832 14.958C48.832 14.538 48.692 14.216 48.412 13.992C48.132 13.768 47.7307 13.656 47.208 13.656H44.884V16.26ZM44.884 20.544H47.516C48.0853 20.544 48.5287 20.418 48.846 20.166C49.1633 19.914 49.322 19.5547 49.322 19.088C49.322 18.6493 49.1493 18.3133 48.804 18.08C48.468 17.8373 48.0153 17.716 47.446 17.716H44.884V20.544ZM55.9536 22.14C55.1976 22.14 54.5256 21.9813 53.9376 21.664C53.359 21.3373 52.9016 20.894 52.5656 20.334C52.239 19.774 52.0756 19.13 52.0756 18.402C52.0756 17.6273 52.2343 16.9507 52.5516 16.372C52.8783 15.784 53.3216 15.3267 53.8816 15C54.451 14.664 55.0996 14.4913 55.8276 14.482C56.4623 14.4913 57.0316 14.65 57.5356 14.958C58.049 15.266 58.4503 15.686 58.7396 16.218C59.0383 16.75 59.1783 17.3613 59.1596 18.052L59.1456 18.668H53.5176C53.6016 19.3307 53.8723 19.858 54.3296 20.25C54.7963 20.6327 55.3843 20.824 56.0936 20.824C56.4576 20.824 56.7936 20.7633 57.1016 20.642C57.419 20.5207 57.7596 20.3013 58.1236 19.984L58.8516 21.006C58.5063 21.342 58.0676 21.6173 57.5356 21.832C57.0036 22.0373 56.4763 22.14 55.9536 22.14ZM55.8276 15.812C54.5676 15.812 53.8163 16.3813 53.5736 17.52H57.6896V17.422C57.6616 17.114 57.559 16.8387 57.3816 16.596C57.2043 16.3533 56.9803 16.162 56.7096 16.022C56.439 15.882 56.145 15.812 55.8276 15.812ZM63.1768 22.14C62.5608 22.14 62.0054 22.0327 61.5108 21.818C61.0161 21.6033 60.6054 21.286 60.2788 20.866L61.2588 20.026C61.5388 20.3527 61.8421 20.5907 62.1688 20.74C62.5048 20.88 62.8828 20.95 63.3028 20.95C63.6481 20.95 63.9281 20.866 64.1428 20.698C64.3668 20.53 64.4788 20.3013 64.4788 20.012C64.4788 19.7693 64.3901 19.5733 64.2128 19.424C64.0354 19.284 63.6294 19.13 62.9948 18.962C62.4534 18.822 62.0101 18.6633 61.6648 18.486C61.3194 18.3087 61.0534 18.108 60.8668 17.884C60.5961 17.548 60.4608 17.1233 60.4608 16.61C60.4608 16.1993 60.5774 15.8353 60.8108 15.518C61.0441 15.2007 61.3568 14.9533 61.7488 14.776C62.1501 14.5893 62.5981 14.496 63.0928 14.496C63.6154 14.496 64.1194 14.6033 64.6048 14.818C65.0994 15.0233 65.4961 15.308 65.7948 15.672L64.9688 16.582C64.6981 16.3113 64.3948 16.0967 64.0588 15.938C63.7321 15.77 63.4334 15.686 63.1628 15.686C62.7614 15.686 62.4488 15.7607 62.2248 15.91C62.0101 16.0593 61.9028 16.2787 61.9028 16.568C61.9121 16.82 62.0148 17.0253 62.2108 17.184C62.4068 17.3427 62.8221 17.5013 63.4568 17.66C63.9234 17.7813 64.3061 17.9167 64.6048 18.066C64.9128 18.206 65.1554 18.3693 65.3328 18.556C65.5194 18.7333 65.6501 18.9387 65.7248 19.172C65.7994 19.4053 65.8368 19.6667 65.8368 19.956C65.8368 20.376 65.7154 20.754 65.4728 21.09C65.2394 21.4167 64.9221 21.6733 64.5208 21.86C64.1194 22.0467 63.6714 22.14 63.1768 22.14ZM68.336 22V16.05H66.81V14.65H68.336V12.774H69.778V14.65H71.486V16.05H69.778V22H68.336ZM77.0868 22V12.2H80.9228C81.8562 12.2 82.6635 12.4053 83.3448 12.816C84.0355 13.2267 84.5675 13.8007 84.9408 14.538C85.3235 15.2753 85.5148 16.1293 85.5148 17.1C85.5148 18.08 85.3282 18.9387 84.9548 19.676C84.5815 20.404 84.0495 20.9733 83.3588 21.384C82.6775 21.7947 81.8655 22 80.9228 22H77.0868ZM80.8528 13.656H78.5988V20.544H80.8528C81.8422 20.544 82.6075 20.2407 83.1488 19.634C83.6995 19.018 83.9748 18.1733 83.9748 17.1C83.9748 16.036 83.6995 15.196 83.1488 14.58C82.5982 13.964 81.8328 13.656 80.8528 13.656ZM90.6255 22.14C89.8695 22.14 89.1975 21.9813 88.6095 21.664C88.0308 21.3373 87.5735 20.894 87.2375 20.334C86.9108 19.774 86.7475 19.13 86.7475 18.402C86.7475 17.6273 86.9062 16.9507 87.2235 16.372C87.5502 15.784 87.9935 15.3267 88.5535 15C89.1228 14.664 89.7715 14.4913 90.4995 14.482C91.1342 14.4913 91.7035 14.65 92.2075 14.958C92.7208 15.266 93.1222 15.686 93.4115 16.218C93.7102 16.75 93.8502 17.3613 93.8315 18.052L93.8175 18.668H88.1895C88.2735 19.3307 88.5442 19.858 89.0015 20.25C89.4682 20.6327 90.0562 20.824 90.7655 20.824C91.1295 20.824 91.4655 20.7633 91.7735 20.642C92.0908 20.5207 92.4315 20.3013 92.7955 19.984L93.5235 21.006C93.1782 21.342 92.7395 21.6173 92.2075 21.832C91.6755 22.0373 91.1482 22.14 90.6255 22.14ZM90.4995 15.812C89.2395 15.812 88.4882 16.3813 88.2455 17.52H92.3615V17.422C92.3335 17.114 92.2308 16.8387 92.0535 16.596C91.8762 16.3533 91.6522 16.162 91.3815 16.022C91.1108 15.882 90.8168 15.812 90.4995 15.812ZM98.2266 22.14C97.62 22.14 97.0646 21.972 96.5606 21.636C96.066 21.3 95.6693 20.8427 95.3706 20.264C95.072 19.6853 94.9226 19.032 94.9226 18.304C94.9226 17.5667 95.072 16.9133 95.3706 16.344C95.6786 15.7653 96.0893 15.3127 96.6026 14.986C97.1253 14.6593 97.7086 14.496 98.3526 14.496C98.9033 14.496 99.3886 14.6173 99.8086 14.86C100.238 15.0933 100.565 15.3967 100.789 15.77V14.65H102.245V22H100.789V20.866C100.537 21.2207 100.177 21.524 99.7106 21.776C99.2533 22.0187 98.7586 22.14 98.2266 22.14ZM98.6046 20.81C99.0433 20.81 99.4306 20.7027 99.7666 20.488C100.103 20.2733 100.364 19.9793 100.551 19.606C100.747 19.2233 100.845 18.7893 100.845 18.304C100.845 17.828 100.747 17.4033 100.551 17.03C100.364 16.6567 100.103 16.3627 99.7666 16.148C99.4306 15.9333 99.0433 15.826 98.6046 15.826C98.1753 15.826 97.7926 15.9333 97.4566 16.148C97.13 16.3627 96.8686 16.6567 96.6726 17.03C96.486 17.4033 96.3926 17.828 96.3926 18.304C96.3926 18.7893 96.486 19.2233 96.6726 19.606C96.8686 19.9793 97.13 20.2733 97.4566 20.488C97.7926 20.7027 98.1753 20.81 98.6046 20.81ZM104.286 22V11.64H105.728V22H104.286ZM110.222 22.14C109.606 22.14 109.05 22.0327 108.556 21.818C108.061 21.6033 107.65 21.286 107.324 20.866L108.304 20.026C108.584 20.3527 108.887 20.5907 109.214 20.74C109.55 20.88 109.928 20.95 110.348 20.95C110.693 20.95 110.973 20.866 111.188 20.698C111.412 20.53 111.524 20.3013 111.524 20.012C111.524 19.7693 111.435 19.5733 111.258 19.424C111.08 19.284 110.674 19.13 110.04 18.962C109.498 18.822 109.055 18.6633 108.71 18.486C108.364 18.3087 108.098 18.108 107.912 17.884C107.641 17.548 107.506 17.1233 107.506 16.61C107.506 16.1993 107.622 15.8353 107.856 15.518C108.089 15.2007 108.402 14.9533 108.794 14.776C109.195 14.5893 109.643 14.496 110.138 14.496C110.66 14.496 111.164 14.6033 111.65 14.818C112.144 15.0233 112.541 15.308 112.84 15.672L112.014 16.582C111.743 16.3113 111.44 16.0967 111.104 15.938C110.777 15.77 110.478 15.686 110.208 15.686C109.806 15.686 109.494 15.7607 109.27 15.91C109.055 16.0593 108.948 16.2787 108.948 16.568C108.957 16.82 109.06 17.0253 109.256 17.184C109.452 17.3427 109.867 17.5013 110.502 17.66C110.968 17.7813 111.351 17.9167 111.65 18.066C111.958 18.206 112.2 18.3693 112.378 18.556C112.564 18.7333 112.695 18.9387 112.77 19.172C112.844 19.4053 112.882 19.6667 112.882 19.956C112.882 20.376 112.76 20.754 112.518 21.09C112.284 21.4167 111.967 21.6733 111.566 21.86C111.164 22.0467 110.716 22.14 110.222 22.14Z" fill="#047857"/>
</svg>
