<svg width="111" height="36" viewBox="0 0 111 36" fill="none" xmlns="http://www.w3.org/2000/svg">
<path d="M0 4C0 1.79086 1.79086 0 4 0H28C30.2091 0 32 1.79086 32 4V8C32 21.2548 21.2548 32 8 32H4C1.79086 32 0 30.2091 0 28V4Z" fill="#F59E0B"/>
<path d="M4 8C4 5.79086 5.79086 4 8 4H32C34.2091 4 36 5.79086 36 8V12C36 25.2548 25.2548 36 12 36H8C5.79086 36 4 34.2091 4 32V8Z" fill="#4BE4C9"/>
<path d="M56.352 26V14.8H59.072V26H56.352ZM49.408 26V14.8H52.128V26H49.408ZM50.464 21.632L50.48 19.2H57.792V21.632H50.464ZM65.6048 26.16C64.7194 26.16 63.9301 25.968 63.2368 25.584C62.5541 25.2 62.0101 24.6773 61.6048 24.016C61.2101 23.3547 61.0128 22.5973 61.0128 21.744C61.0128 20.8907 61.2101 20.1333 61.6048 19.472C62.0101 18.8107 62.5541 18.288 63.2368 17.904C63.9301 17.52 64.7194 17.328 65.6048 17.328C66.4901 17.328 67.2741 17.52 67.9568 17.904C68.6501 18.288 69.1941 18.8107 69.5888 19.472C69.9834 20.1333 70.1808 20.8907 70.1808 21.744C70.1808 22.5973 69.9834 23.3547 69.5888 24.016C69.1941 24.6773 68.6501 25.2 67.9568 25.584C67.2741 25.968 66.4901 26.16 65.6048 26.16ZM65.6048 23.952C65.9888 23.952 66.3301 23.856 66.6288 23.664C66.9274 23.472 67.1621 23.2107 67.3328 22.88C67.5034 22.5493 67.5834 22.1707 67.5728 21.744C67.5834 21.3173 67.5034 20.9387 67.3328 20.608C67.1621 20.2667 66.9274 20 66.6288 19.808C66.3301 19.616 65.9888 19.52 65.6048 19.52C65.2208 19.52 64.8741 19.616 64.5648 19.808C64.2661 20 64.0314 20.2667 63.8608 20.608C63.6901 20.9387 63.6101 21.3173 63.6208 21.744C63.6101 22.1707 63.6901 22.5493 63.8608 22.88C64.0314 23.2107 64.2661 23.472 64.5648 23.664C64.8741 23.856 65.2208 23.952 65.6048 23.952ZM71.8388 26V17.504H74.2708L74.3508 19.04L74.0148 19.056C74.1428 18.7787 74.3028 18.5333 74.4948 18.32C74.6974 18.1067 74.9214 17.9307 75.1668 17.792C75.4228 17.6427 75.6841 17.5307 75.9508 17.456C76.2281 17.3813 76.5054 17.344 76.7828 17.344C77.1988 17.344 77.5774 17.408 77.9188 17.536C78.2601 17.664 78.5588 17.872 78.8148 18.16C79.0708 18.4373 79.2734 18.816 79.4228 19.296L79.0228 19.264L79.1508 19.008C79.2894 18.752 79.4654 18.5227 79.6788 18.32C79.9028 18.1067 80.1481 17.9307 80.4148 17.792C80.6814 17.6427 80.9588 17.5307 81.2468 17.456C81.5348 17.3813 81.8121 17.344 82.0788 17.344C82.7508 17.344 83.3108 17.4773 83.7588 17.744C84.2068 18 84.5428 18.3893 84.7668 18.912C85.0014 19.4347 85.1188 20.0693 85.1188 20.816V26H82.5428V21.024C82.5428 20.6827 82.4948 20.4 82.3988 20.176C82.3028 19.952 82.1588 19.7867 81.9668 19.68C81.7854 19.5627 81.5561 19.504 81.2788 19.504C81.0548 19.504 80.8468 19.5413 80.6548 19.616C80.4734 19.6907 80.3134 19.792 80.1748 19.92C80.0468 20.048 79.9454 20.1973 79.8708 20.368C79.7961 20.5387 79.7587 20.7307 79.7587 20.944V26H77.1828V21.008C77.1828 20.688 77.1348 20.416 77.0388 20.192C76.9428 19.968 76.7988 19.7973 76.6068 19.68C76.4148 19.5627 76.1908 19.504 75.9348 19.504C75.7108 19.504 75.5028 19.5413 75.3108 19.616C75.1294 19.6907 74.9694 19.792 74.8307 19.92C74.7028 20.048 74.6014 20.1973 74.5268 20.368C74.4521 20.5387 74.4148 20.7253 74.4148 20.928V26H71.8388ZM91.2934 26.16C90.3547 26.16 89.5387 25.9733 88.8454 25.6C88.152 25.216 87.6134 24.6987 87.2294 24.048C86.8454 23.3867 86.6534 22.6347 86.6534 21.792C86.6534 21.1413 86.76 20.544 86.9734 20C87.1867 19.456 87.4854 18.9867 87.8694 18.592C88.2534 18.1867 88.7067 17.8773 89.2294 17.664C89.7627 17.44 90.344 17.328 90.9734 17.328C91.5707 17.328 92.1147 17.4347 92.6054 17.648C93.1067 17.8613 93.5387 18.16 93.9014 18.544C94.264 18.928 94.5414 19.3813 94.7334 19.904C94.9254 20.4267 95.0107 20.9973 94.9894 21.616L94.9734 22.304H88.2054L87.8374 20.864H92.8934L92.6214 21.168V20.848C92.6 20.5813 92.5147 20.3467 92.3654 20.144C92.2267 19.9307 92.04 19.7653 91.8054 19.648C91.5707 19.5307 91.304 19.472 91.0054 19.472C90.5894 19.472 90.232 19.5573 89.9334 19.728C89.6454 19.888 89.4267 20.128 89.2774 20.448C89.128 20.7573 89.0534 21.1413 89.0534 21.6C89.0534 22.0693 89.1494 22.48 89.3414 22.832C89.544 23.1733 89.832 23.44 90.2054 23.632C90.5894 23.824 91.0427 23.92 91.5654 23.92C91.928 23.92 92.248 23.8667 92.5254 23.76C92.8134 23.6533 93.1227 23.472 93.4534 23.216L94.6534 24.912C94.3227 25.2 93.9707 25.4347 93.5974 25.616C93.224 25.7973 92.84 25.9307 92.4454 26.016C92.0614 26.112 91.6774 26.16 91.2934 26.16ZM96.6364 26V14.16H99.1964V26H96.6364ZM102.317 29.68L104.253 25.12L104.285 26.432L100.189 17.504H103.085L104.877 21.776C104.973 21.9893 105.064 22.2187 105.149 22.464C105.235 22.7093 105.299 22.944 105.341 23.168L104.989 23.376C105.053 23.216 105.123 23.0187 105.197 22.784C105.283 22.5387 105.373 22.2773 105.469 22L107.037 17.504H109.949L106.333 26L104.861 29.68H102.317Z" fill="#1B1C57"/>
</svg>
