<svg width="135" height="34" viewBox="0 0 135 34" fill="none" xmlns="http://www.w3.org/2000/svg">
<rect width="135" height="34" rx="17" fill="#DBEAFE"/>
<path d="M30.0001 15.2213V21C29.9999 21.1812 29.9508 21.3591 29.8579 21.5147C29.765 21.6703 29.6318 21.7979 29.4723 21.8839C29.3278 21.9622 29.1657 22.0021 29.0014 21.9999H25.9979C25.8653 21.9999 25.7381 21.9473 25.6443 21.8535C25.5506 21.7597 25.4979 21.6326 25.4979 21.4999V18.4995C25.4979 18.3669 25.4452 18.2397 25.3514 18.146C25.2577 18.0522 25.1305 17.9995 24.9979 17.9995H22.9979C22.8653 17.9995 22.7381 18.0522 22.6443 18.146C22.5506 18.2397 22.4979 18.3669 22.4979 18.4995V21.4999C22.4979 21.6326 22.4452 21.7597 22.3514 21.8535C22.2577 21.9473 22.1305 21.9999 21.9979 21.9999H19.0002C18.8584 22.0003 18.7182 21.9704 18.589 21.9121C18.4597 21.8539 18.3444 21.7687 18.2508 21.6623C18.0864 21.4721 17.9972 21.2285 18.0001 20.9771V15.2212C18.0002 15.0819 18.0293 14.9441 18.0857 14.8167C18.1421 14.6893 18.2244 14.575 18.3274 14.4812L23.3269 9.93539C23.5106 9.76717 23.7506 9.67385 23.9996 9.67383C24.2487 9.6738 24.4887 9.76708 24.6724 9.93526L29.6728 14.4813C29.7758 14.5751 29.8581 14.6894 29.9144 14.8168C29.9708 14.9442 29.9999 15.0819 30.0001 15.2213Z" fill="#1D4ED8"/>
<path d="M43.372 22V12.2H44.73L50.428 19.83C50.3533 19.2607 50.2973 18.6027 50.26 17.856C50.232 17.1093 50.218 16.2973 50.218 15.42V12.2H51.73V22H50.344L44.646 14.524C44.7113 15.336 44.7627 15.966 44.8 16.414C44.8373 16.8527 44.8607 17.184 44.87 17.408C44.8793 17.6227 44.884 17.7953 44.884 17.926V22H43.372ZM57.5396 22.14C56.7836 22.14 56.1116 21.9813 55.5236 21.664C54.9449 21.3373 54.4876 20.894 54.1516 20.334C53.8249 19.774 53.6616 19.13 53.6616 18.402C53.6616 17.6273 53.8202 16.9507 54.1376 16.372C54.4642 15.784 54.9076 15.3267 55.4676 15C56.0369 14.664 56.6856 14.4913 57.4136 14.482C58.0482 14.4913 58.6176 14.65 59.1216 14.958C59.6349 15.266 60.0362 15.686 60.3256 16.218C60.6242 16.75 60.7642 17.3613 60.7456 18.052L60.7316 18.668H55.1036C55.1876 19.3307 55.4582 19.858 55.9156 20.25C56.3822 20.6327 56.9702 20.824 57.6796 20.824C58.0436 20.824 58.3796 20.7633 58.6876 20.642C59.0049 20.5207 59.3456 20.3013 59.7096 19.984L60.4376 21.006C60.0922 21.342 59.6536 21.6173 59.1216 21.832C58.5896 22.0373 58.0622 22.14 57.5396 22.14ZM57.4136 15.812C56.1536 15.812 55.4022 16.3813 55.1596 17.52H59.2756V17.422C59.2476 17.114 59.1449 16.8387 58.9676 16.596C58.7902 16.3533 58.5662 16.162 58.2956 16.022C58.0249 15.882 57.7309 15.812 57.4136 15.812ZM63.982 22L61.476 14.65L62.932 14.636L64.584 19.704L66.348 15.812H67.216L68.966 19.648L70.604 14.65H72.06L69.582 22H68.588L66.712 17.73L64.962 22H63.982ZM77.6611 22V12.2H79.1731V16.386H84.0591V12.2H85.5711V22H84.0591V17.842H79.1731V22H77.6611ZM91.2515 22.14C90.5328 22.14 89.8888 21.9767 89.3195 21.65C88.7595 21.314 88.3161 20.8613 87.9895 20.292C87.6628 19.7133 87.4995 19.0553 87.4995 18.318C87.4995 17.5807 87.6628 16.9273 87.9895 16.358C88.3161 15.7793 88.7595 15.3267 89.3195 15C89.8888 14.664 90.5328 14.496 91.2515 14.496C91.9608 14.496 92.5955 14.664 93.1555 15C93.7248 15.3267 94.1728 15.7793 94.4995 16.358C94.8261 16.9273 94.9895 17.5807 94.9895 18.318C94.9895 19.0553 94.8261 19.7133 94.4995 20.292C94.1728 20.8613 93.7248 21.314 93.1555 21.65C92.5955 21.9767 91.9608 22.14 91.2515 22.14ZM91.2515 20.824C91.6901 20.824 92.0821 20.7167 92.4275 20.502C92.7728 20.278 93.0435 19.9793 93.2395 19.606C93.4355 19.2233 93.5288 18.794 93.5195 18.318C93.5288 17.8327 93.4355 17.4033 93.2395 17.03C93.0435 16.6473 92.7728 16.3487 92.4275 16.134C92.0821 15.9193 91.6901 15.812 91.2515 15.812C90.8128 15.812 90.4161 15.924 90.0615 16.148C89.7161 16.3627 89.4455 16.6613 89.2495 17.044C89.0535 17.4173 88.9601 17.842 88.9695 18.318C88.9601 18.794 89.0535 19.2233 89.2495 19.606C89.4455 19.9793 89.7161 20.278 90.0615 20.502C90.4161 20.7167 90.8128 20.824 91.2515 20.824ZM99.1367 22.14C98.3527 22.14 97.7274 21.874 97.2607 21.342C96.7941 20.81 96.5607 20.0913 96.5607 19.186V14.65H98.0027V18.794C98.0027 19.438 98.1521 19.9467 98.4507 20.32C98.7587 20.6933 99.1834 20.88 99.7247 20.88C100.257 20.88 100.695 20.712 101.041 20.376C101.395 20.04 101.573 19.606 101.573 19.074V14.65H103.015V22H101.573V20.824C101.33 21.216 100.989 21.5333 100.551 21.776C100.121 22.0187 99.6501 22.14 99.1367 22.14ZM107.487 22.14C106.871 22.14 106.316 22.0327 105.821 21.818C105.327 21.6033 104.916 21.286 104.589 20.866L105.569 20.026C105.849 20.3527 106.153 20.5907 106.479 20.74C106.815 20.88 107.193 20.95 107.613 20.95C107.959 20.95 108.239 20.866 108.453 20.698C108.677 20.53 108.789 20.3013 108.789 20.012C108.789 19.7693 108.701 19.5733 108.523 19.424C108.346 19.284 107.94 19.13 107.305 18.962C106.764 18.822 106.321 18.6633 105.975 18.486C105.63 18.3087 105.364 18.108 105.177 17.884C104.907 17.548 104.771 17.1233 104.771 16.61C104.771 16.1993 104.888 15.8353 105.121 15.518C105.355 15.2007 105.667 14.9533 106.059 14.776C106.461 14.5893 106.909 14.496 107.403 14.496C107.926 14.496 108.43 14.6033 108.915 14.818C109.41 15.0233 109.807 15.308 110.105 15.672L109.279 16.582C109.009 16.3113 108.705 16.0967 108.369 15.938C108.043 15.77 107.744 15.686 107.473 15.686C107.072 15.686 106.759 15.7607 106.535 15.91C106.321 16.0593 106.213 16.2787 106.213 16.568C106.223 16.82 106.325 17.0253 106.521 17.184C106.717 17.3427 107.133 17.5013 107.767 17.66C108.234 17.7813 108.617 17.9167 108.915 18.066C109.223 18.206 109.466 18.3693 109.643 18.556C109.83 18.7333 109.961 18.9387 110.035 19.172C110.11 19.4053 110.147 19.6667 110.147 19.956C110.147 20.376 110.026 20.754 109.783 21.09C109.55 21.4167 109.233 21.6733 108.831 21.86C108.43 22.0467 107.982 22.14 107.487 22.14ZM115.167 22.14C114.411 22.14 113.739 21.9813 113.151 21.664C112.572 21.3373 112.115 20.894 111.779 20.334C111.452 19.774 111.289 19.13 111.289 18.402C111.289 17.6273 111.447 16.9507 111.765 16.372C112.091 15.784 112.535 15.3267 113.095 15C113.664 14.664 114.313 14.4913 115.041 14.482C115.675 14.4913 116.245 14.65 116.749 14.958C117.262 15.266 117.663 15.686 117.953 16.218C118.251 16.75 118.391 17.3613 118.373 18.052L118.359 18.668H112.731C112.815 19.3307 113.085 19.858 113.543 20.25C114.009 20.6327 114.597 20.824 115.307 20.824C115.671 20.824 116.007 20.7633 116.315 20.642C116.632 20.5207 116.973 20.3013 117.337 19.984L118.065 21.006C117.719 21.342 117.281 21.6173 116.749 21.832C116.217 22.0373 115.689 22.14 115.167 22.14ZM115.041 15.812C113.781 15.812 113.029 16.3813 112.787 17.52H116.903V17.422C116.875 17.114 116.772 16.8387 116.595 16.596C116.417 16.3533 116.193 16.162 115.923 16.022C115.652 15.882 115.358 15.812 115.041 15.812Z" fill="#1D4ED8"/>
</svg>
