<svg width="111" height="34" viewBox="0 0 111 34" fill="none" xmlns="http://www.w3.org/2000/svg">
<rect width="111" height="34" rx="17" fill="#FEE2E2"/>
<path d="M29.0328 15.3312C28.7295 14.6485 28.2885 14.0357 27.7375 13.5312L27.2828 13.1141C27.2674 13.1003 27.2488 13.0905 27.2287 13.0856C27.2086 13.0807 27.1876 13.0808 27.1675 13.0858C27.1475 13.0909 27.129 13.1009 27.1137 13.1148C27.0984 13.1287 27.0867 13.1461 27.0797 13.1656L26.8766 13.7484C26.75 14.1141 26.5172 14.4875 26.1875 14.8547C26.1656 14.8781 26.1406 14.8844 26.1234 14.8859C26.1063 14.8875 26.0797 14.8844 26.0562 14.8625C26.0344 14.8437 26.0234 14.8156 26.025 14.7875C26.0828 13.8469 25.8016 12.7859 25.1859 11.6312C24.6766 10.6719 23.9688 9.92343 23.0844 9.40156L22.4391 9.02187C22.3547 8.97187 22.2469 9.03749 22.2516 9.13593L22.2859 9.88593C22.3094 10.3984 22.25 10.8516 22.1094 11.2281C21.9375 11.6891 21.6906 12.1172 21.375 12.5016C21.1553 12.7687 20.9064 13.0103 20.6328 13.2219C19.9739 13.7284 19.4381 14.3774 19.0656 15.1203C18.694 15.8697 18.5005 16.6948 18.5 17.5312C18.5 18.2687 18.6453 18.9828 18.9328 19.6562C19.2104 20.3046 19.611 20.8931 20.1125 21.3891C20.6188 21.8891 21.2063 22.2828 21.8609 22.5562C22.5391 22.8406 23.2578 22.9844 24 22.9844C24.7422 22.9844 25.4609 22.8406 26.1391 22.5578C26.7921 22.286 27.386 21.8895 27.8875 21.3906C28.3938 20.8906 28.7906 20.3062 29.0672 19.6578C29.3543 18.9862 29.5015 18.2632 29.5 17.5328C29.5 16.7703 29.3438 16.0297 29.0328 15.3312Z" fill="#EF4444"/>
<path d="M43.372 22V12.2H47.362C47.894 12.2 48.3747 12.3353 48.804 12.606C49.2427 12.8673 49.5927 13.2267 49.854 13.684C50.1153 14.1413 50.246 14.65 50.246 15.21C50.246 15.77 50.1153 16.2787 49.854 16.736C49.5927 17.1933 49.2427 17.562 48.804 17.842C48.3747 18.1127 47.894 18.248 47.362 18.248H44.884V22H43.372ZM44.884 16.792H47.334C47.586 16.792 47.8147 16.722 48.02 16.582C48.2253 16.4327 48.3887 16.2413 48.51 16.008C48.6407 15.7653 48.706 15.4993 48.706 15.21C48.706 14.7807 48.5707 14.4167 48.3 14.118C48.0293 13.81 47.7073 13.656 47.334 13.656H44.884V16.792ZM55.0483 22.14C54.3297 22.14 53.6857 21.9767 53.1163 21.65C52.5563 21.314 52.113 20.8613 51.7863 20.292C51.4597 19.7133 51.2963 19.0553 51.2963 18.318C51.2963 17.5807 51.4597 16.9273 51.7863 16.358C52.113 15.7793 52.5563 15.3267 53.1163 15C53.6857 14.664 54.3297 14.496 55.0483 14.496C55.7577 14.496 56.3923 14.664 56.9523 15C57.5217 15.3267 57.9697 15.7793 58.2963 16.358C58.623 16.9273 58.7863 17.5807 58.7863 18.318C58.7863 19.0553 58.623 19.7133 58.2963 20.292C57.9697 20.8613 57.5217 21.314 56.9523 21.65C56.3923 21.9767 55.7577 22.14 55.0483 22.14ZM55.0483 20.824C55.487 20.824 55.879 20.7167 56.2243 20.502C56.5697 20.278 56.8403 19.9793 57.0363 19.606C57.2323 19.2233 57.3257 18.794 57.3163 18.318C57.3257 17.8327 57.2323 17.4033 57.0363 17.03C56.8403 16.6473 56.5697 16.3487 56.2243 16.134C55.879 15.9193 55.487 15.812 55.0483 15.812C54.6097 15.812 54.213 15.924 53.8583 16.148C53.513 16.3627 53.2423 16.6613 53.0463 17.044C52.8503 17.4173 52.757 17.842 52.7663 18.318C52.757 18.794 52.8503 19.2233 53.0463 19.606C53.2423 19.9793 53.513 20.278 53.8583 20.502C54.213 20.7167 54.6097 20.824 55.0483 20.824ZM60.3576 25.08V14.65H61.8136V15.7C62.0376 15.3827 62.3689 15.1073 62.8076 14.874C63.2556 14.6407 63.7176 14.524 64.1936 14.524C64.8563 14.524 65.4443 14.6873 65.9576 15.014C66.4709 15.3407 66.8769 15.7887 67.1756 16.358C67.4743 16.9273 67.6236 17.5807 67.6236 18.318C67.6236 19.046 67.4743 19.6993 67.1756 20.278C66.8863 20.8473 66.4849 21.3 65.9716 21.636C65.4583 21.9627 64.8796 22.126 64.2356 22.126C63.7596 22.126 63.3023 22.0187 62.8636 21.804C62.4249 21.5893 62.0749 21.3327 61.8136 21.034V25.08H60.3576ZM63.9976 20.796C64.4269 20.796 64.8096 20.6887 65.1456 20.474C65.4816 20.2593 65.7476 19.9653 65.9436 19.592C66.1396 19.2187 66.2376 18.794 66.2376 18.318C66.2376 17.842 66.1396 17.422 65.9436 17.058C65.7569 16.6847 65.4956 16.3907 65.1596 16.176C64.8236 15.9613 64.4363 15.854 63.9976 15.854C63.5589 15.854 63.1716 15.9613 62.8356 16.176C62.4996 16.3813 62.2336 16.6707 62.0376 17.044C61.8416 17.4173 61.7436 17.842 61.7436 18.318C61.7436 18.794 61.8416 19.2187 62.0376 19.592C62.2336 19.9653 62.4996 20.2593 62.8356 20.474C63.1716 20.6887 63.5589 20.796 63.9976 20.796ZM71.7656 22.14C70.9816 22.14 70.3563 21.874 69.8896 21.342C69.423 20.81 69.1896 20.0913 69.1896 19.186V14.65H70.6316V18.794C70.6316 19.438 70.781 19.9467 71.0796 20.32C71.3876 20.6933 71.8123 20.88 72.3536 20.88C72.8856 20.88 73.3243 20.712 73.6696 20.376C74.0243 20.04 74.2016 19.606 74.2016 19.074V14.65H75.6436V22H74.2016V20.824C73.959 21.216 73.6183 21.5333 73.1796 21.776C72.7503 22.0187 72.279 22.14 71.7656 22.14ZM77.6942 22V11.64H79.1362V22H77.6942ZM83.8712 22.14C83.2645 22.14 82.7092 21.972 82.2052 21.636C81.7105 21.3 81.3138 20.8427 81.0152 20.264C80.7165 19.6853 80.5672 19.032 80.5672 18.304C80.5672 17.5667 80.7165 16.9133 81.0152 16.344C81.3232 15.7653 81.7338 15.3127 82.2472 14.986C82.7698 14.6593 83.3532 14.496 83.9972 14.496C84.5478 14.496 85.0332 14.6173 85.4532 14.86C85.8825 15.0933 86.2092 15.3967 86.4332 15.77V14.65H87.8892V22H86.4332V20.866C86.1812 21.2207 85.8218 21.524 85.3552 21.776C84.8978 22.0187 84.4032 22.14 83.8712 22.14ZM84.2492 20.81C84.6878 20.81 85.0752 20.7027 85.4112 20.488C85.7472 20.2733 86.0085 19.9793 86.1952 19.606C86.3912 19.2233 86.4892 18.7893 86.4892 18.304C86.4892 17.828 86.3912 17.4033 86.1952 17.03C86.0085 16.6567 85.7472 16.3627 85.4112 16.148C85.0752 15.9333 84.6878 15.826 84.2492 15.826C83.8198 15.826 83.4372 15.9333 83.1012 16.148C82.7745 16.3627 82.5132 16.6567 82.3172 17.03C82.1305 17.4033 82.0372 17.828 82.0372 18.304C82.0372 18.7893 82.1305 19.2233 82.3172 19.606C82.5132 19.9793 82.7745 20.2733 83.1012 20.488C83.4372 20.7027 83.8198 20.81 84.2492 20.81ZM89.9025 22V14.65H91.3585V16.036C91.5732 15.5973 91.8859 15.2333 92.2965 14.944C92.7072 14.6453 93.1412 14.496 93.5985 14.496C93.7572 14.496 93.9065 14.51 94.0465 14.538C94.1959 14.566 94.3125 14.5987 94.3965 14.636L94.0185 16.204C93.9065 16.1573 93.7805 16.12 93.6405 16.092C93.5099 16.0547 93.3792 16.036 93.2485 16.036C92.9125 16.036 92.5999 16.12 92.3105 16.288C92.0305 16.456 91.8019 16.6847 91.6245 16.974C91.4472 17.2633 91.3585 17.5853 91.3585 17.94V22H89.9025Z" fill="#EF4444"/>
</svg>
